<svg aria-hidden="true" style="position: absolute; width: 0; height: 0; overflow: hidden;" xmlns="http://www.w3.org/2000/svg">
    <defs>
        <symbol id="icon-close-menu" viewBox="0 0 32 32">
            <path fill="" style="fill: var(--color1, );" d="M32 3.72 28.28 0 16 12.28 3.72 0 0 3.72 12.28 16 0 28.28 3.72 32 16 19.72 28.28 32 32 28.28 19.72 16 32 3.72z" />
        </symbol>
        <symbol id="icon-facebook" viewBox="0 0 32 32">
            <path
                fill=""
                style="fill: var(--color2, );"
                d="M32 16.04C32 7.186 24.832 0 16 0S0 7.186 0 16.04c0 7.763 5.504 14.227 12.8 15.72V20.853H9.6V16.04h3.2v-4.01a5.613 5.613 0 0 1 5.599-5.613H22.4v4.813h-3.2c-.88 0-1.6.72-1.6 1.603v3.208h4.8v4.813h-4.8V32c8.08-.802 14.4-7.635 14.4-15.96z"
            />
        </symbol>
        <symbol id="icon-instagram" viewBox="0 0 32 32">
            <path
                fill=""
                style="fill: var(--color2, );"
                d="M23.385 0H8.614A8.624 8.624 0 0 0-.001 8.614v14.771A8.624 8.624 0 0 0 8.613 32h14.771a8.626 8.626 0 0 0 8.615-8.614V8.615A8.626 8.626 0 0 0 23.385 0h-.001zM16 23.385c-4.079 0-7.385-3.306-7.385-7.385S11.921 8.615 16 8.615s7.385 3.306 7.385 7.385-3.306 7.385-7.385 7.385zm9.229-14.77a1.846 1.846 0 0 1 0-3.692 1.846 1.846 0 0 1 0 3.692zM20.925 16a4.923 4.923 0 1 1-9.846 0 4.923 4.923 0 1 1 9.846 0z"
            />
        </symbol>
        <symbol id="icon-youtube" viewBox="0 0 32 32">
            <path
                fill=""
                style="fill: var(--color2, );"
                d="m18.672 15.722-3.744-1.747c-.326-.15-.595.019-.595.381v3.29c0 .362.269.531.595.381l3.742-1.747c.328-.154.328-.403 0-.557zM16 0C7.163 0 0 7.163 0 16s7.163 16 16 16 16-7.163 16-16S24.837 0 16 0zm0 22.501c-8.19 0-8.333-.739-8.333-6.501S7.811 9.499 16 9.499c8.19 0 8.333.739 8.333 6.501s-.144 6.501-8.333 6.501z"
            />
        </symbol>
    </defs>
</svg>